{
.appVersion = "1357";
copyright = "Copyright © 2018 Typeóca™ / OFL 1.1";
date = "2018-12-10 18:36:04 +0000";
designer = "Gabriel Figueiredo";
designerURL = "http://www.gabrielfigueiredo.com";
familyName = MAP;
fontMaster = (
{
ascender = 800;
capHeight = 700;
descender = -200;
iconName = Light;
id = "777CB398-BCB3-4782-A5B3-5A534E1C9F35";
weightValue = 10;
xHeight = 500;
},
{
ascender = 800;
capHeight = 700;
custom = Black;
descender = -200;
iconName = Bold;
id = "111A2C16-552E-47C9-8C54-18B8801A4090";
xHeight = 500;
}
);
glyphs = (
{
glyphname = K;
lastChange = "2018-11-29 19:06:41 +0000";
layers = (
{
background = {
paths = (
{
closed = 1;
nodes = (
"494 0 LINE",
"500 0 LINE",
"354 253 LINE",
"348 253 LINE"
);
},
{
closed = 1;
nodes = (
"354 247 LINE",
"500 500 LINE",
"494 500 LINE",
"348 247 LINE"
);
}
);
};
components = (
{
alignment = -1;
name = Haste_Horizontal;
transform = "{0.71, 0, 0, 1, 0, 0}";
},
{
alignment = -1;
name = Haste_Vertical;
}
);
layerId = "777CB398-BCB3-4782-A5B3-5A534E1C9F35";
paths = (
{
closed = 1;
nodes = (
"494 0 LINE",
"500 0 LINE",
"354 253 LINE",
"349 251 LINE"
);
},
{
closed = 1;
nodes = (
"354 247 LINE",
"500 500 LINE",
"494 500 LINE",
"349 249 LINE"
);
}
);
width = 600;
},
{
background = {
paths = (
{
closed = 1;
nodes = (
"384 0 LINE",
"500 0 LINE",
"326 300 LINE",
"211 300 LINE"
);
},
{
closed = 1;
nodes = (
"326 200 LINE",
"500 500 LINE",
"384 500 LINE",
"211 200 LINE"
);
}
);
};
components = (
{
alignment = -1;
name = Haste_Horizontal;
transform = "{0.65, 0, 0, 1, 0, 0}";
},
{
alignment = -1;
name = Haste_Vertical;
}
);
layerId = "111A2C16-552E-47C9-8C54-18B8801A4090";
paths = (
{
closed = 1;
nodes = (
"388 0 LINE",
"500 0 LINE",
"326 300 LINE",
"248 236 LINE"
);
},
{
closed = 1;
nodes = (
"326 200 LINE",
"500 500 LINE",
"388 500 LINE",
"248 265 LINE"
);
}
);
width = 600;
}
);
unicode = 004B;
},
{
glyphname = N;
lastChange = "2018-11-29 19:04:43 +0000";
layers = (
{
components = (
{
alignment = -1;
name = Haste_Horizontal;
transform = "{0, -1, 1, 0, 247, 500}";
},
{
alignment = -1;
name = Haste_Horizontal;
transform = "{0, -1, 1, 0, -248, 500}";
}
);
layerId = "777CB398-BCB3-4782-A5B3-5A534E1C9F35";
paths = (
{
closed = 1;
nodes = (
"5 500 LINE",
"0 498 LINE",
"495 0 LINE",
"500 2 LINE"
);
}
);
width = 600;
},
{
components = (
{
alignment = -1;
name = Haste_Horizontal;
transform = "{0, -1, 1, 0, 200, 500}";
},
{
alignment = -1;
name = Haste_Horizontal;
transform = "{0, -1, 1, 0, -200, 500}";
}
);
layerId = "111A2C16-552E-47C9-8C54-18B8801A4090";
paths = (
{
closed = 1;
nodes = (
"100 500 LINE",
"0 448 LINE",
"400 0 LINE",
"500 52 LINE"
);
}
);
width = 600;
}
);
unicode = 004E;
},
{
glyphname = Q;
lastChange = "2018-11-22 12:38:27 +0000";
layers = (
{
background = {
components = (
{
alignment = -1;
name = Haste_Horizontal;
transform = "{0, -1, 1, 0, 0, 500}";
}
);
};
components = (
{
alignment = -1;
name = Haste_Vertical;
transform = "{0, -1, 1, 0, 0, 500}";
},
{
alignment = -1;
name = Haste_Horizontal;
transform = "{0, -1, 1, 0, 247, 500}";
},
{
alignment = -1;
name = Haste_Horizontal;
transform = "{0, -1, 1, 0, -248, 500}";
},
{
alignment = -1;
name = Haste_Horizontal;
transform = "{1, 0, 0, 1, 0, -248}";
}
);
layerId = "777CB398-BCB3-4782-A5B3-5A534E1C9F35";
paths = (
{
closed = 1;
nodes = (
"489 -125 LINE",
"500 -125 LINE",
"253 5 LINE",
"242 5 LINE"
);
}
);
width = 600;
},
{
background = {
components = (
{
alignment = -1;
name = Haste_Horizontal;
transform = "{0, -1, 1, 0, 0, 500}";
}
);
};
components = (
{
alignment = -1;
name = Haste_Vertical;
transform = "{0, -1, 1, 0, 0, 500}";
},
{
alignment = -1;
name = Haste_Horizontal;
transform = "{0, -1, 1, 0, 200, 500}";
},
{
alignment = -1;
name = Haste_Horizontal;
transform = "{0, -1, 1, 0, -200, 500}";
},
{
alignment = -1;
name = Haste_Horizontal;
transform = "{1, 0, 0, 1, 0, -200}";
}
);
layerId = "111A2C16-552E-47C9-8C54-18B8801A4090";
paths = (
{
closed = 1;
nodes = (
"384 -125 LINE",
"500 -125 LINE",
"300 100 LINE",
"185 100 LINE"
);
}
);
width = 600;
}
);
unicode = 0051;
},
{
glyphname = R;
lastChange = "2018-11-29 19:06:06 +0000";
layers = (
{
background = {
components = (
{
alignment = -1;
name = Haste_Vertical;
transform = "{0.86602, 0.5, -0.5, 0.86602, 496, -3}";
}
);
};
components = (
{
alignment = -1;
name = Haste_Vertical;
transform = "{1, 0, 0, 0.5, 495, 248}";
},
{
alignment = -1;
name = Haste_Horizontal;
transform = "{1, 0, 0, 1, 0, 247}";
},
{
alignment = -1;
name = Haste_Horizontal;
},
{
alignment = -1;
name = Haste_Vertical;
}
);
layerId = "777CB398-BCB3-4782-A5B3-5A534E1C9F35";
paths = (
{
closed = 1;
nodes = (
"494 0 LINE",
"500 0 LINE",
"354 253 LINE",
"348 253 LINE"
);
}
);
width = 600;
},
{
background = {
components = (
{
alignment = -1;
name = Haste_Vertical;
transform = "{0.86602, 0.5, -0.5, 0.86602, 413, -50}";
}
);
};
components = (
{
alignment = -1;
name = Haste_Vertical;
transform = "{1, 0, 0, 0.6, 400, 200}";
},
{
alignment = -1;
name = Haste_Horizontal;
transform = "{1, 0, 0, 1, 0, 200}";
},
{
alignment = -1;
name = Haste_Horizontal;
},
{
alignment = -1;
name = Haste_Vertical;
}
);
layerId = "111A2C16-552E-47C9-8C54-18B8801A4090";
paths = (
{
closed = 1;
nodes = (
"386 0 LINE",
"500 0 LINE",
"326 300 LINE",
"213 300 LINE"
);
}
);
width = 600;
}
);
unicode = 0052;
},
{
glyphname = V;
lastChange = "2018-11-29 19:03:21 +0000";
layers = (
{
background = {
components = (
{
alignment = -1;
name = Haste_Vertical;
transform = "{1, 0, 0, 0.5, 248, 0}";
}
);
paths = (
{
closed = 1;
nodes = (
"6 500 LINE",
"0 500 LINE",
"146 247 LINE",
"152 247 LINE"
);
},
{
closed = 1;
nodes = (
"354 247 LINE",
"500 500 LINE",
"494 500 LINE",
"348 247 LINE"
);
}
);
};
components = (
{
name = Haste_Horizontal;
transform = "{0.4, 0, 0, 1, 150, -248}";
}
);
layerId = "777CB398-BCB3-4782-A5B3-5A534E1C9F35";
paths = (
{
closed = 1;
nodes = (
"353 0 LINE",
"500 500 LINE",
"494 500 LINE",
"347 0 LINE"
);
},
{
closed = 1;
nodes = (
"6 500 LINE",
"0 500 LINE",
"148 0 LINE",
"154 0 LINE"
);
}
);
width = 600;
},
{
background = {
components = (
{
alignment = -1;
name = Haste_Horizontal;
transform = "{0, -1, 1, 0, 0, 500}";
}
);
paths = (
{
closed = 1;
nodes = (
"116 500 LINE",
"0 500 LINE",
"200 0 LINE",
"251 0 LINE",
"300 38 LINE"
);
},
{
closed = 1;
nodes = (
"249 0 LINE",
"300 0 LINE",
"500 500 LINE",
"384 500 LINE",
"200 38 LINE"
);
}
);
};
components = (
{
name = Haste_Horizontal;
transform = "{0.5, 0, 0, 1, 125, -200}";
}
);
layerId = "111A2C16-552E-47C9-8C54-18B8801A4090";
paths = (
{
closed = 1;
nodes = (
"400 0 LINE",
"500 500 LINE",
"397 500 LINE",
"297 0 LINE"
);
},
{
closed = 1;
nodes = (
"103 500 LINE",
"0 500 LINE",
"100 0 LINE",
"203 0 LINE"
);
}
);
width = 600;
}
);
unicode = 0056;
},
{
glyphname = W;
lastChange = "2018-11-22 16:33:07 +0000";
layers = (
{
background = {
components = (
{
alignment = -1;
name = Haste_Vertical;
transform = "{0, 1, -1, 0, 500, 0}";
},
{
alignment = -1;
name = Haste_Horizontal;
transform = "{0, 1, -1, 0, 253, 0}";
},
{
alignment = -1;
name = Haste_Horizontal;
transform = "{0, 1, -1, 0, 500, 0}";
},
{
alignment = -1;
name = Haste_Horizontal;
transform = "{0, 1, -1, 0, 748, 0}";
}
);
paths = (
{
closed = 1;
nodes = (
"6 500 LINE",
"0 500 LINE",
"146 247 LINE",
"152 247 LINE"
);
}
);
};
components = (
{
alignment = -1;
name = Haste_Vertical;
transform = "{0, 1, -1, 0, 500, 0}";
},
{
alignment = -1;
name = Haste_Horizontal;
transform = "{0, 1, -1, 0, 253, 0}";
},
{
alignment = -1;
name = Haste_Horizontal;
transform = "{0, 1, -1, 0, 500, 0}";
},
{
alignment = -1;
name = Haste_Horizontal;
transform = "{0, 1, -1, 0, 748, 0}";
}
);
layerId = "777CB398-BCB3-4782-A5B3-5A534E1C9F35";
width = 600;
},
{
background = {
components = (
{
alignment = -1;
name = Haste_Vertical;
transform = "{0, 1, -1, 0, 500, 0}";
},
{
alignment = -1;
name = Haste_Horizontal;
transform = "{0, 1, -1, 0, 300, 0}";
},
{
alignment = -1;
name = Haste_Horizontal;
transform = "{0, 1, -1, 0, 500, 0}";
},
{
alignment = -1;
name = Haste_Horizontal;
transform = "{0, 1, -1, 0, 700, 0}";
}
);
};
components = (
{
alignment = -1;
name = Haste_Vertical;
transform = "{0, 1, -1, 0, 500, 0}";
},
{
alignment = -1;
name = Haste_Horizontal;
transform = "{0, 1, -1, 0, 300, 0}";
},
{
alignment = -1;
name = Haste_Horizontal;
transform = "{0, 1, -1, 0, 500, 0}";
},
{
alignment = -1;
name = Haste_Horizontal;
transform = "{0, 1, -1, 0, 700, 0}";
}
);
layerId = "111A2C16-552E-47C9-8C54-18B8801A4090";
width = 600;
}
);
unicode = 0057;
},
{
glyphname = X;
lastChange = "2018-11-22 16:43:21 +0000";
layers = (
{
background = {
paths = (
{
closed = 1;
nodes = (
"0 0 LINE",
"7 0 LINE",
"500 500 LINE",
"493 500 LINE"
);
},
{
closed = 1;
nodes = (
"0 500 LINE",
"493 0 LINE",
"500 0 LINE",
"7 500 LINE"
);
}
);
};
components = (
{
alignment = -1;
name = Haste_Horizontal;
transform = "{0.41, 0, 0, 1, 147, 0}";
}
);
layerId = "777CB398-BCB3-4782-A5B3-5A534E1C9F35";
paths = (
{
closed = 1;
nodes = (
"494 0 LINE",
"500 0 LINE",
"354 253 LINE",
"349 251 LINE"
);
},
{
closed = 1;
nodes = (
"354 247 LINE",
"500 500 LINE",
"494 500 LINE",
"349 249 LINE"
);
},
{
closed = 1;
nodes = (
"146 253 LINE",
"0 0 LINE",
"6 0 LINE",
"151 251 LINE"
);
},
{
closed = 1;
nodes = (
"6 500 LINE",
"0 500 LINE",
"146 247 LINE",
"151 249 LINE"
);
}
);
width = 600;
},
{
background = {
paths = (
{
closed = 1;
nodes = (
"0 0 LINE",
"116 0 LINE",
"500 500 LINE",
"384 500 LINE"
);
},
{
closed = 1;
nodes = (
"0 500 LINE",
"384 0 LINE",
"500 0 LINE",
"116 500 LINE"
);
}
);
};
components = (
{
alignment = -1;
name = Haste_Horizontal;
transform = "{0.2, 0, 0, 1, 194, 0}";
}
);
layerId = "111A2C16-552E-47C9-8C54-18B8801A4090";
paths = (
{
closed = 1;
nodes = (
"384 0 LINE",
"500 0 LINE",
"326 300 LINE",
"248 236 LINE"
);
},
{
closed = 1;
nodes = (
"326 200 LINE",
"500 500 LINE",
"384 500 LINE",
"248 265 LINE"
);
},
{
closed = 1;
nodes = (
"174 300 LINE",
"0 0 LINE",
"116 0 LINE",
"252 236 LINE"
);
},
{
closed = 1;
nodes = (
"116 500 LINE",
"0 500 LINE",
"174 200 LINE",
"252 265 LINE"
);
}
);
width = 600;
}
);
unicode = 0058;
},
{
glyphname = Y;
lastChange = "2018-11-29 19:04:26 +0000";
layers = (
{
background = {
components = (
{
alignment = -1;
name = Haste_Horizontal;
transform = "{0, -1, 1, 0, 0, 500}";
},
{
alignment = -1;
name = Haste_Horizontal;
transform = "{0, -1, 1, 0, 247, 500}";
}
);
};
components = (
{
alignment = -1;
name = Haste_Vertical;
transform = "{1, 0, 0, 0.5, 248, 0}";
}
);
layerId = "777CB398-BCB3-4782-A5B3-5A534E1C9F35";
paths = (
{
closed = 1;
nodes = (
"7 500 LINE",
"0 500 LINE",
"248 247 LINE",
"253 248 LINE"
);
},
{
closed = 1;
nodes = (
"253 247 LINE",
"500 500 LINE",
"493 500 LINE",
"248 248 LINE"
);
}
);
width = 600;
},
{
background = {
components = (
{
alignment = -1;
name = Haste_Horizontal;
transform = "{0, -1, 1, 0, 0, 500}";
},
{
alignment = -1;
name = Haste_Horizontal;
transform = "{0, -1, 1, 0, 200, 500}";
},
{
alignment = -1;
name = Haste_Horizontal;
transform = "{0.304, 0, 0, 1, 174, 0}";
}
);
paths = (
{
closed = 1;
nodes = (
"326 200 LINE",
"500 500 LINE",
"384 500 LINE",
"248 265 LINE"
);
},
{
closed = 1;
nodes = (
"116 500 LINE",
"0 500 LINE",
"174 200 LINE",
"252 265 LINE"
);
}
);
};
components = (
{
alignment = -1;
name = Haste_Vertical;
transform = "{1, 0, 0, 0.6, 200, 0}";
}
);
layerId = "111A2C16-552E-47C9-8C54-18B8801A4090";
paths = (
{
closed = 1;
nodes = (
"109 500 LINE",
"0 500 LINE",
"200 211 LINE",
"297 229 LINE"
);
},
{
closed = 1;
nodes = (
"300 211 LINE",
"500 500 LINE",
"390 500 LINE",
"202 229 LINE"
);
}
);
width = 600;
}
);
unicode = 0059;
},
{
glyphname = Z;
lastChange = "2018-11-29 19:01:48 +0000";
layers = (
{
background = {
components = (
{
alignment = -1;
name = Haste_Horizontal;
transform = "{0.70711, 0.70711, -0.70711, 0.70711, 250, -103}";
}
);
};
components = (
{
alignment = -1;
name = Haste_Horizontal;
transform = "{1, 0, 0, 1, 0, 247}";
},
{
alignment = -1;
name = Haste_Horizontal;
transform = "{1, 0, 0, 1, 0, -248}";
}
);
layerId = "777CB398-BCB3-4782-A5B3-5A534E1C9F35";
paths = (
{
closed = 1;
nodes = (
"0 5 LINE",
"2 0 LINE",
"500 495 LINE",
"498 500 LINE"
);
}
);
width = 600;
},
{
background = {
components = (
{
alignment = -1;
name = Haste_Horizontal;
transform = "{0.70711, 0.70711, -0.70711, 0.70711, 250, -104}";
}
);
};
components = (
{
alignment = -1;
name = Haste_Horizontal;
transform = "{1, 0, 0, 1, 0, 200}";
},
{
alignment = -1;
name = Haste_Horizontal;
transform = "{1, 0, 0, 1, 0, -200}";
}
);
layerId = "111A2C16-552E-47C9-8C54-18B8801A4090";
paths = (
{
closed = 1;
nodes = (
"0 100 LINE",
"46 0 LINE",
"500 400 LINE",
"455 500 LINE"
);
}
);
width = 600;
}
);
unicode = 005A;
},
{
glyphname = zero;
lastChange = "2018-11-29 19:02:30 +0000";
layers = (
{
components = (
{
name = O;
}
);
layerId = "777CB398-BCB3-4782-A5B3-5A534E1C9F35";
paths = (
{
closed = 1;
nodes = (
"0 5 LINE",
"2 0 LINE",
"500 495 LINE",
"498 500 LINE"
);
}
);
width = 600;
},
{
components = (
{
name = O;
}
);
layerId = "111A2C16-552E-47C9-8C54-18B8801A4090";
paths = (
{
closed = 1;
nodes = (
"9 100 LINE",
"41 0 LINE",
"491 400 LINE",
"459 500 LINE"
);
}
);
width = 600;
}
);
unicode = 0030;
},
{
glyphname = bullet;
lastChange = "2019-08-06 15:00:40 +0000";
layers = (
{
layerId = "777CB398-BCB3-4782-A5B3-5A534E1C9F35";
paths = (
{
closed = 1;
nodes = (
"250 100 LINE",
"255 100 LINE",
"255 400 LINE",
"250 400 LINE"
);
}
);
width = 600;
},
{
background = {
components = (
{
name = E;
}
);
};
layerId = "111A2C16-552E-47C9-8C54-18B8801A4090";
paths = (
{
closed = 1;
nodes = (
"100 100 LINE",
"400 100 LINE",
"400 400 LINE",
"100 400 LINE"
);
}
);
width = 600;
}
);
unicode = 2022;
},
{
glyphname = asterisk;
lastChange = "2018-11-29 20:25:37 +0000";
layers = (
{
background = {
components = (
{
name = M;
transform = "{0, -1, 1, 0, 0, 500}";
}
);
};
layerId = "777CB398-BCB3-4782-A5B3-5A534E1C9F35";
paths = (
{
closed = 1;
nodes = (
"253 500 LINE",
"248 500 LINE",
"248 0 LINE",
"253 0 LINE"
);
},
{
closed = 1;
nodes = (
"500 0 LINE",
"500 6 LINE",
"0 500 LINE",
"0 494 LINE"
);
},
{
closed = 1;
nodes = (
"500 500 LINE",
"0 6 LINE",
"0 0 LINE",
"500 494 LINE"
);
}
);
width = 600;
},
{
layerId = "111A2C16-552E-47C9-8C54-18B8801A4090";
paths = (
{
closed = 1;
nodes = (
"300 500 LINE",
"200 500 LINE",
"200 0 LINE",
"300 0 LINE"
);
},
{
closed = 1;
nodes = (
"500 0 LINE",
"500 114 LINE",
"0 500 LINE",
"0 386 LINE"
);
},
{
closed = 1;
nodes = (
"500 500 LINE",
"0 114 LINE",
"0 0 LINE",
"500 386 LINE"
);
}
);
width = 600;
}
);
unicode = 002A;
},
{
glyphname = numbersign;
lastChange = "2018-11-22 21:11:45 +0000";
layers = (
{
background = {
paths = (
{
closed = 1;
nodes = (
"256 0 LINE",
"356 0 LINE",
"444.163 500 LINE",
"344.163 500 LINE"
);
},
{
closed = 1;
nodes = (
"56 0 LINE",
"156 0 LINE",
"244.163 500 LINE",
"144.163 500 LINE"
);
},
{
closed = 1;
nodes = (
"0 400 LINE",
"0 300 LINE",
"500 300 LINE",
"500 400 LINE"
);
},
{
closed = 1;
nodes = (
"0 200 LINE",
"0 100 LINE",
"500 100 LINE",
"500 200 LINE"
);
}
);
};
components = (
{
alignment = -1;
name = Haste_Vertical;
transform = "{1, 0, 0.17633, 1, 301, 0}";
},
{
alignment = -1;
name = Haste_Vertical;
transform = "{1, 0, 0.17633, 1, 100, 0}";
},
{
name = Haste_Horizontal;
transform = "{1, 0, 0, 1, 0, 100}";
},
{
name = Haste_Horizontal;
transform = "{1, 0, 0, 1, 0, -100}";
}
);
layerId = "777CB398-BCB3-4782-A5B3-5A534E1C9F35";
width = 600;
},
{
components = (
{
alignment = -1;
name = Haste_Vertical;
transform = "{1, 0, 0.17633, 1, 256, 0}";
},
{
alignment = -1;
name = Haste_Vertical;
transform = "{1, 0, 0.17633, 1, 56, 0}";
},
{
name = Haste_Horizontal;
transform = "{1, 0, 0, 1, 0, 100}";
},
{
name = Haste_Horizontal;
transform = "{1, 0, 0, 1, 0, -100}";
}
);
layerId = "111A2C16-552E-47C9-8C54-18B8801A4090";
width = 600;
}
);
unicode = 0023;
},
{
glyphname = slash;
lastChange = "2018-11-22 21:24:30 +0000";
layers = (
{
background = {
paths = (
{
closed = 1;
nodes = (
"0 5 LINE",
"2 0 LINE",
"500 495 LINE",
"498 500 LINE"
);
}
);
};
layerId = "777CB398-BCB3-4782-A5B3-5A534E1C9F35";
paths = (
{
closed = 1;
nodes = (
"0 0 LINE",
"6 0 LINE",
"500 500 LINE",
"494 500 LINE"
);
}
);
width = 600;
},
{
layerId = "111A2C16-552E-47C9-8C54-18B8801A4090";
paths = (
{
closed = 1;
nodes = (
"0 0 LINE",
"125 0 LINE",
"500 500 LINE",
"375 500 LINE"
);
}
);
width = 600;
}
);
unicode = 002F;
},
{
glyphname = braceleft;
lastChange = "2019-08-06 15:24:23 +0000";
layers = (
{
background = {
paths = (
{
closed = 1;
nodes = (
"0 300 LINE",
"0 200 LINE",
"100 200 LINE",
"100 300 LINE"
);
}
);
};
components = (
{
alignment = -1;
name = Haste_Horizontal;
transform = "{0.4, 0, 0, 1, 0, 0}";
},
{
name = Haste_Vertical;
transform = "{1, 0, 0, 1, 200, 0}";
},
{
alignment = -1;
name = Haste_Horizontal;
transform = "{0.6, 0, 0, 1, 200, -248}";
},
{
alignment = -1;
name = Haste_Horizontal;
transform = "{0.6, 0, 0, 1, 200, 247}";
}
);
layerId = "777CB398-BCB3-4782-A5B3-5A534E1C9F35";
width = 600;
},
{
components = (
{
alignment = -1;
name = Haste_Horizontal;
transform = "{0.6, 0, 0, 1, 0, 0}";
},
{
name = Haste_Vertical;
transform = "{1, 0, 0, 1, 200, 0}";
},
{
alignment = -1;
name = Haste_Horizontal;
transform = "{0.6, 0, 0, 1, 200, -200}";
},
{
alignment = -1;
name = Haste_Horizontal;
transform = "{0.6, 0, 0, 1, 200, 200}";
}
);
layerId = "111A2C16-552E-47C9-8C54-18B8801A4090";
width = 600;
}
);
unicode = 007B;
},
{
glyphname = blackSquare;
lastChange = "2019-08-06 16:34:40 +0000";
layers = (
{
layerId = "777CB398-BCB3-4782-A5B3-5A534E1C9F35";
paths = (
{
closed = 1;
nodes = (
"500 0 LINE",
"500 500 LINE",
"0 500 LINE",
"0 0 LINE"
);
}
);
width = 600;
},
{
layerId = "111A2C16-552E-47C9-8C54-18B8801A4090";
paths = (
{
closed = 1;
nodes = (
"500 0 LINE",
"500 500 LINE",
"0 500 LINE",
"0 0 LINE"
);
}
);
width = 600;
}
);
unicode = 25A0;
},
{
glyphname = blackLargeSquare;
lastChange = "2019-08-06 16:36:03 +0000";
layers = (
{
layerId = "777CB398-BCB3-4782-A5B3-5A534E1C9F35";
paths = (
{
closed = 1;
nodes = (
"600 0 LINE",
"600 500 LINE",
"0 500 LINE",
"0 0 LINE"
);
}
);
width = 600;
},
{
layerId = "111A2C16-552E-47C9-8C54-18B8801A4090";
paths = (
{
closed = 1;
nodes = (
"600 0 LINE",
"600 500 LINE",
"0 500 LINE",
"0 0 LINE"
);
}
);
width = 600;
}
);
unicode = 2B1B;
},
{
glyphname = acutecomb;
lastChange = "2018-11-22 21:25:28 +0000";
layers = (
{
anchors = (
{
name = _top;
position = "{1, 500}";
}
);
background = {
paths = (
{
closed = 1;
nodes = (
"257 575 LINE",
"368 700 LINE",
"361 700 LINE",
"250 575 LINE"
);
}
);
};
layerId = "777CB398-BCB3-4782-A5B3-5A534E1C9F35";
paths = (
{
closed = 1;
nodes = (
"257 575 LINE",
"368 700 LINE",
"361 700 LINE",
"250 575 LINE"
);
}
);
width = 600;
},
{
anchors = (
{
name = _top;
position = "{0, 500}";
}
);
layerId = "111A2C16-552E-47C9-8C54-18B8801A4090";
paths = (
{
closed = 1;
nodes = (
"303 575 LINE",
"414 700 LINE",
"294 700 LINE",
"183 575 LINE"
);
}
);
width = 600;
}
);
unicode = 0301;
},
{
glyphname = cedillacomb;
lastChange = "2018-11-22 17:31:45 +0000";
layers = (
{
anchors = (
{
name = _bottom;
position = "{0, 0}";
}
);
layerId = "777CB398-BCB3-4782-A5B3-5A534E1C9F35";
paths = (
{
closed = 1;
nodes = (
"297 5 LINE",
"50 -125 LINE",
"61 -125 LINE",
"308 5 LINE"
);
}
);
width = 600;
},
{
anchors = (
{
name = _bottom;
position = "{0, 0}";
}
);
layerId = "111A2C16-552E-47C9-8C54-18B8801A4090";
paths = (
{
closed = 1;
nodes = (
"300 100 LINE",
"100 -125 LINE",
"216 -125 LINE",
"415 100 LINE"
);
}
);
width = 600;
}
);
unicode = 0327;
},
{
glyphname = Haste_Vertical;
lastChange = "2018-11-22 17:04:01 +0000";
layers = (
{
layerId = "777CB398-BCB3-4782-A5B3-5A534E1C9F35";
paths = (
{
closed = 1;
nodes = (
"0 0 LINE",
"5 0 LINE",
"5 500 LINE",
"0 500 LINE"
);
}
);
width = 600;
},
{
layerId = "111A2C16-552E-47C9-8C54-18B8801A4090";
paths = (
{
closed = 1;
nodes = (
"0 0 LINE",
"100 0 LINE",
"100 500 LINE",
"0 500 LINE"
);
}
);
width = 600;
}
);
},
{
glyphname = Haste_Horizontal;
lastChange = "2018-11-21 22:10:11 +0000";
layers = (
{
layerId = "777CB398-BCB3-4782-A5B3-5A534E1C9F35";
paths = (
{
closed = 1;
nodes = (
"0 253 LINE",
"0 248 LINE",
"500 248 LINE",
"500 253 LINE"
);
}
